# xmcd
#
# Track frame offsets:
#	150
#	12339
#	30691
#
# Disc length: 703 seconds
#
# Revision: 0
# Processed by: cddbd v1.5.2PL0 Copyright (c) Steve Scherf et al.
# Submitted via: audiograbber 1.83.01
#
DISCID=1a02bd03
DTITLE=Old Crow Medicine Show - Carry Me Back to Virginia
DYEAR=1996
DGENRE=
TTITLE0=CarryMe Back To Virginia	
TTITLE1=Ain't It Enough (Alternate Version)
TTITLE2=Dixieland Delight
EXTD=
EXTT0=
EXTT1=
EXTT2=
PLAYORDER=
